HIERARCHY
ROOT Hips
{
	OFFSET 0.00000 0.00000 0.00000
	CHANNELS 6 Xposition Yposition Zposition Zrotation Yrotation Xrotation 
	JOINT LHipJoint
	{
		OFFSET 0 0 0
		CHANNELS 3 Zrotation Yrotation Xrotation
		JOINT LeftUpLeg
		{
			OFFSET 1.29432 -1.88279 0.59910
			CHANNELS 3 Zrotation Yrotation Xrotation
			JOINT LeftLeg
			{
				OFFSET 2.63039 -7.22694 0.00000
				CHANNELS 3 Zrotation Yrotation Xrotation
				JOINT LeftFoot
				{
					OFFSET 2.70674 -7.43672 0.00000
					CHANNELS 3 Zrotation Yrotation Xrotation
					JOINT LeftToeBase
					{
						OFFSET 0.15066 -0.41394 2.09027
						CHANNELS 3 Zrotation Yrotation Xrotation
						End Site
						{
							OFFSET 0.00000 -0.00000 1.07518
						}
					}
				}
			}
		}
	}
	JOINT RHipJoint
	{
		OFFSET 0 0 0
		CHANNELS 3 Zrotation Yrotation Xrotation
		JOINT RightUpLeg
		{
			OFFSET -1.37068 -1.88279 0.59910
			CHANNELS 3 Zrotation Yrotation Xrotation
			JOINT RightLeg
			{
				OFFSET -2.57023 -7.06166 0.00000
				CHANNELS 3 Zrotation Yrotation Xrotation
				JOINT RightFoot
				{
					OFFSET -2.76461 -7.59570 0.00000
					CHANNELS 3 Zrotation Yrotation Xrotation
					JOINT RightToeBase
					{
						OFFSET -0.24175 -0.64785 2.19719
						CHANNELS 3 Zrotation Yrotation Xrotation
						End Site
						{
							OFFSET -0.00000 -0.00000 1.14803
						}
					}
				}
			}
		}
	}
	JOINT LowerBack
	{
		OFFSET 0 0 0
		CHANNELS 3 Zrotation Yrotation Xrotation
		JOINT Spine
		{
			OFFSET -0.03138 2.03983 -0.23106
			CHANNELS 3 Zrotation Yrotation Xrotation
			JOINT Spine1
			{
				OFFSET -0.00325 2.06238 -0.06878
				CHANNELS 3 Zrotation Yrotation Xrotation
				JOINT Neck
				{
					OFFSET 0 0 0
					CHANNELS 3 Zrotation Yrotation Xrotation
					JOINT Neck1
					{
						OFFSET -0.00002 1.75318 0.18090
						CHANNELS 3 Zrotation Yrotation Xrotation
						JOINT Head
						{
							OFFSET 0.08806 1.75856 -0.25387
							CHANNELS 3 Zrotation Yrotation Xrotation
							End Site
							{
								OFFSET 0.02554 1.78597 -0.10684
							}
						}
					}
				}
				JOINT LeftShoulder
				{
					OFFSET 0 0 0
					CHANNELS 3 Zrotation Yrotation Xrotation
					JOINT LeftArm
					{
						OFFSET 3.09657 1.33597 -0.04414
						CHANNELS 3 Zrotation Yrotation Xrotation
						JOINT LeftForeArm
						{
							OFFSET 5.34298 -0.00000 -0.00000
							CHANNELS 3 Zrotation Yrotation Xrotation
							JOINT LeftHand
							{
								OFFSET 3.67262 -0.00000 -0.00000
								CHANNELS 3 Zrotation Yrotation Xrotation
								JOINT LeftFingerBase
								{
									OFFSET 0 0 0
									CHANNELS 3 Zrotation Yrotation Xrotation
									JOINT LeftHandIndex1
									{
										OFFSET 0.59930 -0.00000 -0.00000
										CHANNELS 3 Zrotation Yrotation Xrotation
										End Site
										{
											OFFSET 0.48317 -0.00000 -0.00000
										}
									}
								}
								JOINT LThumb
								{
									OFFSET 0 0 0
									CHANNELS 3 Zrotation Yrotation Xrotation
									End Site
									{
										OFFSET 0.49055 -0.00000 0.49055
									}
								}
							}
						}
					}
				}
				JOINT RightShoulder
				{
					OFFSET 0 0 0
					CHANNELS 3 Zrotation Yrotation Xrotation
					JOINT RightArm
					{
						OFFSET -3.16460 1.32273 -0.23382
						CHANNELS 3 Zrotation Yrotation Xrotation
						JOINT RightForeArm
						{
							OFFSET -5.54967 -0.01834 0.03348
							CHANNELS 3 Zrotation Yrotation Xrotation
							JOINT RightHand
							{
								OFFSET -3.69401 -0.00000 0.00000
								CHANNELS 3 Zrotation Yrotation Xrotation
								JOINT RightFingerBase
								{
									OFFSET 0 0 0
									CHANNELS 3 Zrotation Yrotation Xrotation
									JOINT RightHandIndex1
									{
										OFFSET -0.63811 -0.00000 0.00000
										CHANNELS 3 Zrotation Yrotation Xrotation
										End Site
										{
											OFFSET -0.51446 -0.00000 0.00000
										}
									}
								}
								JOINT RThumb
								{
									OFFSET 0 0 0
									CHANNELS 3 Zrotation Yrotation Xrotation
									End Site
									{
										OFFSET -0.52232 -0.00000 0.52232
									}
								}
							}
						}
					}
				}
			}
		}
	}
}
MOTION
Frames: 16
Frame Time: .0083333
7.4277 10.78 7.3116 0 0 0 0 0 0 -21 0 0 0 0 0 0 0 0 0 0 0 0 0 0 21 0 0 0 0 0 0 0 0 0 0 0 0 0 0 0 0 0 0 0 0 0 0 -16 0 0 21 0 0 11 0 0 0 -8 0 0 0 0 0 0 0 0 0 0 0 0 0 0 0 0 0 0 0 0 8 0 0 0 0 0 0 0 0 0 0 0 0 0 0 0 0 0
7.4277 10.7800 7.3116 -176.7360 -6.8069 171.6590 0.0000 0.0000 0.0000 18.7919 7.8867 -65.8084 28.1029 18.3468 114.3377 1.9132 -13.7515 -25.2206 1.5366 -7.8256 -22.1855 0.0000 0.0000 0.0000 -15.8311 0.2058 -65.7917 -26.6716 -18.8975 109.8575 -1.4240 1.1286 -22.2297 -1.5264 7.8007 -22.1103 -0.8418 1.5250 30.7014 -1.8664 -0.8850 9.1801 -1.1736 -1.4171 -6.4968 -6.1995 -5.2589 -13.8952 10.9699 -6.9457 -0.0585 3.8717 -3.2667 2.8390 0.0000 0.0000 0.0000 -80.7748 -64.9736 60.1593 39.2826 -47.6391 -17.9074 -0.0000 -0.0000 21.9973 12.3406 33.9450 6.9650 -7.1250 0.0000 -0.0000 -24.9107 62.8383 -11.1507 0.0000 0.0000 0.0000 74.7535 46.4777 33.7494 -60.1293 56.3443 -34.4487 0.0000 0.0000 29.2948 -12.9916 23.9229 -5.3448 7.1250 -0.0000 -0.0000 10.0365 -5.8149 9.1122
7.4294 10.7726 7.3108 -177.4650 -6.8256 171.5990 0.0000 0.0000 0.0000 17.9871 7.6507 -65.5658 28.1058 18.3456 114.3470 1.9144 -13.6315 -25.2093 1.4182 -7.5313 -21.2993 0.0000 0.0000 0.0000 -16.5643 -0.0267 -65.7707 -26.6410 -18.9080 109.7630 -1.3911 0.5108 -22.1505 -1.9373 8.7342 -24.9673 -1.4279 1.6547 30.9984 -2.0590 -0.9489 9.1532 -1.0235 -1.4571 -6.6686 -5.8700 -5.1935 -13.8063 10.7120 -6.8960 -0.0664 3.7455 -3.2509 2.7957 -0.0000 -0.0000 0.0000 -80.9804 -64.6179 59.8231 39.7590 -47.9264 -18.2601 -0.0000 -0.0000 22.0737 12.1678 33.9280 6.8625 -7.1250 0.0000 -0.0000 -25.0786 62.7788 -11.1958 -0.0000 -0.0000 0.0000 75.1991 46.6763 34.1247 -59.5990 56.2021 -34.0076 0.0000 0.0000 29.0687 -13.2445 23.9806 -5.4643 7.1250 -0.0000 -0.0000 9.8834 -5.7259 8.9858
7.4324 10.7768 7.3073 -178.2720 -6.7923 171.7290 0.0000 0.0000 0.0000 17.0322 7.5329 -65.4325 28.0904 18.3522 114.2980 1.9573 -13.2218 -25.4149 1.4392 -7.5845 -21.4589 0.0000 0.0000 0.0000 -17.5832 -0.3355 -65.9818 -26.7151 -18.8826 109.9919 -1.4310 1.6614 -22.1417 -1.6410 8.0744 -22.9402 -2.0500 1.7630 31.1007 -2.3798 -1.0428 9.0784 -0.9876 -1.5014 -6.8057 -5.5150 -5.1526 -13.8812 10.6182 -6.9029 0.1115 3.6556 -3.2493 2.8457 -0.0000 -0.0000 0.0000 -80.2310 -64.2394 59.2590 40.2794 -48.2346 -18.6474 -0.0000 -0.0000 21.6113 11.7680 33.9519 6.6365 -7.1250 0.0000 -0.0000 -25.5286 62.6971 -11.3615 -0.0000 -0.0000 0.0000 75.9193 46.8678 34.5841 -59.0992 56.0651 -33.5926 0.0000 0.0000 28.9917 -13.2966 23.9707 -5.4843 7.1250 -0.0000 -0.0000 9.8509 -5.7293 8.9547
7.4336 10.7845 7.3007 -178.6640 -6.6967 171.8620 0.0000 0.0000 0.0000 16.5739 7.5867 -65.3457 28.0855 18.3543 114.2824 1.9929 -12.9815 -25.6021 1.4741 -7.6720 -21.7221 0.0000 0.0000 0.0000 -18.1365 -0.3337 -66.0990 -26.7450 -18.8723 110.0843 -1.4443 2.6120 -22.0217 -1.3016 7.2278 -20.3921 -2.3278 1.7718 31.0857 -2.5648 -1.1496 9.0870 -0.9962 -1.5577 -6.7922 -5.4086 -5.1047 -14.2365 10.7080 -6.8756 0.3509 3.6587 -3.2192 2.9722 0.0000 0.0000 0.0000 -79.4106 -64.1563 58.5065 40.4967 -48.3614 -18.8096 -0.0000 -0.0000 21.1215 12.2495 34.4602 7.0036 -7.1250 0.0000 -0.0000 -25.5323 63.2719 -11.7077 0.0000 0.0000 0.0000 76.3700 47.2405 34.9490 -58.8402 55.9929 -33.3779 0.0000 0.0000 29.0770 -13.0257 23.8193 -5.3375 7.1250 -0.0000 -0.0000 10.0108 -5.9142 9.0688
7.4341 10.7879 7.2967 -178.5750 -6.6897 171.9130 0.0000 0.0000 0.0000 16.6886 7.6725 -65.3798 28.0996 18.3482 114.3272 1.9569 -13.3984 -25.4372 1.2983 -7.2190 -20.3658 0.0000 0.0000 0.0000 -18.1202 -0.3788 -66.1506 -26.7714 -18.8631 110.1661 -1.4465 3.1376 -21.9324 -1.1126 6.7011 -18.8329 -2.2268 1.6658 31.0090 -2.4698 -1.2434 9.1336 -0.9161 -1.6052 -6.7031 -5.6783 -5.0422 -14.1174 10.9307 -6.7596 0.1953 3.7836 -3.1648 2.9162 -0.0000 -0.0000 0.0000 -78.5495 -64.0182 57.6426 41.1951 -48.7622 -19.3332 -0.0000 -0.0000 20.5679 12.2501 34.6102 7.0304 -7.1250 0.0000 -0.0000 -25.6876 63.4046 -11.8635 -0.0000 -0.0000 0.0000 76.2635 47.5011 35.1165 -58.9324 56.0187 -33.4543 0.0000 0.0000 29.1602 -12.4550 24.0207 -5.1376 7.1250 -0.0000 -0.0000 10.3710 -5.7830 9.4327
7.4360 10.7834 7.2925 -178.2590 -6.6997 171.8870 0.0000 0.0000 0.0000 17.0949 7.8138 -65.4639 28.1265 18.3367 114.4127 1.9122 -13.8119 -25.2240 1.1854 -6.9096 -19.4479 0.0000 0.0000 0.0000 -17.6578 -0.5860 -66.1799 -26.7653 -18.8653 110.1472 -1.4400 2.6384 -21.9821 -1.3600 7.3817 -20.8511 -1.8767 1.5567 30.9471 -2.2732 -1.2479 9.1717 -0.8981 -1.6065 -6.6295 -5.8938 -5.0319 -13.9514 11.0053 -6.7095 0.1375 3.8491 -3.1413 2.8790 0.0000 0.0000 0.0000 -77.6004 -63.7406 57.0378 42.3917 -49.4248 -20.2376 -0.0000 -0.0000 19.8299 12.6615 35.5190 7.4361 -7.1250 0.0000 -0.0000 -26.2264 64.3137 -12.6848 0.0000 0.0000 0.0000 75.8991 47.6090 35.0993 -59.0839 56.0608 -33.5800 0.0000 0.0000 29.0364 -12.1865 24.5179 -5.1211 7.1250 -0.0000 -0.0000 10.5566 -5.3210 9.7020
7.4389 10.7745 7.2880 -178.2320 -6.6706 171.9420 0.0000 0.0000 0.0000 17.1659 7.9405 -65.5728 28.1557 18.3241 114.5056 1.9393 -13.6095 -25.3597 1.3270 -7.2950 -20.5923 0.0000 0.0000 0.0000 -17.5465 -0.7062 -66.3144 -26.7609 -18.8668 110.1336 -1.4287 2.1908 -21.9924 -1.5574 7.8759 -22.3377 -1.7858 1.5330 31.0019 -2.1983 -1.2426 9.1595 -0.8678 -1.6027 -6.6676 -5.9067 -5.0140 -14.2049 10.9309 -6.6797 0.3797 3.8240 -3.1125 2.9862 -0.0000 -0.0000 0.0000 -77.0368 -63.4872 56.6199 43.2421 -49.8776 -20.8857 -0.0000 -0.0000 19.4878 12.2237 35.6099 7.1894 -7.1250 0.0000 -0.0000 -26.8010 64.2743 -12.9575 -0.0000 -0.0000 0.0000 75.6577 47.8636 35.1865 -58.9016 56.0101 -33.4288 0.0000 0.0000 28.8567 -12.2662 24.5942 -5.1704 7.1250 -0.0000 -0.0000 10.5113 -5.2354 9.6761
7.4409 10.7729 7.2872 -178.4630 -6.6689 172.1230 0.0000 0.0000 0.0000 16.8843 7.9430 -65.7438 28.1763 18.3151 114.5713 1.9700 -13.3832 -25.5157 1.3865 -7.4503 -21.0565 0.0000 0.0000 0.0000 -17.8055 -0.8464 -66.5749 -26.7677 -18.8644 110.1546 -1.4211 2.3258 -21.9012 -1.4958 7.7258 -21.8843 -2.0337 1.5407 30.9698 -2.1435 -1.3119 9.1999 -0.6396 -1.6417 -6.6039 -5.8801 -4.9704 -14.5224 10.7598 -6.6112 0.4071 3.7668 -3.0777 3.0296 -0.0000 -0.0000 0.0000 -77.0044 -63.4386 56.0931 43.5086 -50.0166 -21.0897 -0.0000 -0.0000 19.8564 11.7393 34.9414 6.7873 -7.1250 0.0000 -0.0000 -26.5861 63.5609 -12.4053 -0.0000 -0.0000 0.0000 75.3816 48.2807 35.3784 -58.8087 55.9841 -33.3518 0.0000 0.0000 28.6947 -11.9757 24.6618 -5.0579 7.1250 -0.0000 -0.0000 10.6915 -5.2037 9.8547
7.4418 10.7772 7.2838 -178.3200 -6.5980 172.2720 0.0000 0.0000 0.0000 17.0588 8.0906 -65.9036 28.1904 18.3090 114.6161 1.9569 -13.5697 -25.4623 1.3201 -7.2768 -20.5380 0.0000 0.0000 0.0000 -17.5767 -0.8381 -66.7545 -26.7636 -18.8658 110.1420 -1.4222 2.2472 -21.9277 -1.5360 7.8241 -22.1810 -1.8548 1.5485 30.7828 -2.0627 -1.2877 9.4583 -0.6671 -1.6593 -6.2245 -5.6064 -5.0465 -15.5069 10.5603 -6.7544 0.5297 3.6304 -3.1390 3.2133 -0.0000 -0.0000 0.0000 -77.4250 -64.0614 55.9560 43.3408 -49.9293 -20.9612 -0.0000 -0.0000 20.3365 12.0840 34.4078 6.8979 -7.1250 0.0000 -0.0000 -25.6553 63.1822 -11.7141 -0.0000 -0.0000 0.0000 74.9999 48.7971 35.1257 -59.1539 56.0802 -33.6380 0.0000 0.0000 28.4995 -11.6166 24.6259 -4.8960 7.1250 -0.0000 -0.0000 10.9092 -5.2824 10.0464
7.4453 10.7754 7.2764 -178.1650 -6.6109 172.4320 0.0000 0.0000 0.0000 17.2966 8.1957 -66.1093 28.2029 18.3036 114.6557 1.9175 -13.9179 -25.2736 1.2362 -7.0505 -19.8651 0.0000 0.0000 0.0000 -17.3266 -0.9450 -66.8786 -26.7535 -18.8694 110.1105 -1.4138 2.0280 -21.9125 -1.6508 8.0973 -23.0099 -1.7217 1.3871 30.7270 -1.9963 -1.3588 9.1748 -0.6429 -1.6515 -6.5193 -5.8979 -4.9498 -14.5994 10.7024 -6.5742 0.3222 3.7546 -3.0643 3.0107 0.0000 0.0000 0.0000 -77.6543 -63.4281 55.7078 43.4562 -49.9894 -21.0495 -0.0000 -0.0000 20.5178 12.0521 34.3060 6.8617 -7.1250 0.0000 -0.0000 -25.5845 63.0839 -11.6206 0.0000 0.0000 0.0000 75.0589 48.2755 35.5443 -59.5481 56.1883 -33.9653 0.0000 0.0000 28.2332 -11.7089 24.0887 -4.8352 7.1250 -0.0000 -0.0000 10.8321 -5.8042 9.8631
7.4545 10.7771 7.2704 -178.5270 -6.7118 172.4230 0.0000 0.0000 0.0000 16.9514 8.0604 -65.9828 28.1970 18.3061 114.6369 1.8510 -14.4882 -24.9623 0.9711 -6.2738 -17.5809 0.0000 0.0000 0.0000 -17.6688 -1.2427 -66.8136 -26.7487 -18.8710 110.0958 -1.4048 2.0151 -21.8435 -1.7074 8.2279 -23.4086 -2.0339 1.4055 30.9421 -2.0728 -1.4711 9.1989 -0.5048 -1.7154 -6.5908 -6.0083 -4.9069 -15.0491 10.7366 -6.5032 0.6168 3.7786 -3.0082 3.1689 -0.0000 -0.0000 0.0000 -77.1551 -63.2866 55.1398 43.7248 -50.1282 -21.2555 -0.0000 -0.0000 20.3563 12.2012 34.9301 7.0578 -7.1250 0.0000 -0.0000 -26.0789 63.6734 -12.2205 -0.0000 -0.0000 0.0000 75.0269 48.4457 35.6497 -59.5381 56.1856 -33.9570 0.0000 0.0000 28.0124 -12.1993 23.8510 -4.9961 7.1250 -0.0000 -0.0000 10.5214 -5.9825 9.5335
7.4616 10.7899 7.2652 -178.7630 -6.6445 172.3200 0.0000 0.0000 0.0000 16.7335 7.9890 -65.6226 28.1777 18.3145 114.5754 1.8085 -14.9690 -24.7929 0.7088 -5.3808 -14.9979 0.0000 0.0000 0.0000 -17.8907 -1.2274 -66.7089 -26.7579 -18.8678 110.1241 -1.4155 2.2360 -21.8769 -1.6258 8.0388 -22.8319 -2.2036 1.4717 31.2386 -2.1682 -1.5119 9.2835 -0.4940 -1.7565 -6.6326 -5.7142 -4.9228 -15.4634 10.5947 -6.5735 0.6708 3.6737 -3.0417 3.2399 -0.0000 -0.0000 0.0000 -76.9271 -63.4464 54.8319 43.7046 -50.1178 -21.2400 -0.0000 -0.0000 20.2420 13.1978 35.5605 7.7661 -7.1250 0.0000 -0.0000 -25.6903 64.4963 -12.5173 -0.0000 -0.0000 0.0000 75.1762 48.5799 35.7092 -59.7250 56.2362 -34.1123 0.0000 0.0000 27.8404 -12.3893 23.7259 -5.0510 7.1250 -0.0000 -0.0000 10.3994 -6.0843 9.3984
7.4617 10.7984 7.2599 -178.7460 -6.4687 172.4380 0.0000 0.0000 0.0000 16.7297 8.1051 -65.6298 28.1754 18.3155 114.5681 1.8345 -14.8432 -24.9283 0.6906 -5.3126 -14.8022 0.0000 0.0000 0.0000 -17.8298 -1.1179 -66.8799 -26.7660 -18.8650 110.1493 -1.4212 2.2997 -21.9075 -1.6055 7.9909 -22.6865 -2.1128 1.5254 31.2228 -2.1707 -1.4123 9.2681 -0.5847 -1.7072 -6.6438 -5.3818 -4.9708 -15.2120 10.3902 -6.6794 0.2571 3.5562 -3.1251 3.0641 -0.0000 -0.0000 0.0000 -77.0835 -63.5603 54.9464 43.7247 -50.1282 -21.2554 -0.0000 -0.0000 20.0068 13.4780 35.4188 7.9079 -7.1250 0.0000 -0.0000 -25.2276 64.4477 -12.2494 -0.0000 -0.0000 0.0000 75.2681 48.4299 35.6237 -60.1352 56.3458 -34.4536 0.0000 0.0000 27.6155 -12.2015 23.2304 -4.8749 7.1250 -0.0000 -0.0000 10.4967 -6.5997 9.3836
7.4665 10.7985 7.2545 -178.9450 -6.3124 172.5850 0.0000 0.0000 0.0000 16.5036 8.3179 -65.6950 28.1790 18.3140 114.5796 1.8838 -14.4398 -25.1557 0.8442 -5.8605 -16.3801 0.0000 0.0000 0.0000 -18.0188 -1.0695 -67.0310 -26.7664 -18.8649 110.1504 -1.4303 2.3929 -21.9593 -1.6175 8.0192 -22.7725 -2.3301 1.6245 31.1124 -2.1441 -1.3409 9.2623 -0.4566 -1.6728 -6.5964 -5.1220 -4.9583 -14.9826 10.0095 -6.6741 -0.0120 3.4051 -3.1493 2.9210 0.0000 0.0000 0.0000 -76.9534 -63.5762 54.7276 43.9077 -50.2220 -21.3960 -0.0000 -0.0000 19.6081 12.9561 35.1298 7.5412 -7.1250 0.0000 -0.0000 -25.4794 64.0511 -12.1449 0.0000 0.0000 0.0000 75.2288 48.4234 35.6646 -60.3981 56.4151 -34.6725 0.0000 0.0000 27.2627 -12.3655 23.0251 -4.9011 7.1250 -0.0000 -0.0000 10.3875 -6.7850 9.2446
7.4742 10.7947 7.2505 -179.3080 -6.2347 172.5900 0.0000 0.0000 0.0000 16.1518 8.3868 -65.5578 28.1783 18.3143 114.5775 1.9271 -13.9811 -25.3427 1.0742 -6.5884 -18.5015 0.0000 0.0000 0.0000 -18.4471 -1.0166 -67.0735 -26.7796 -18.8603 110.1913 -1.4312 2.6068 -21.9193 -1.5836 7.9388 -22.5282 -2.5702 1.7027 31.2417 -2.2638 -1.3532 9.2700 -0.4452 -1.6865 -6.6479 -4.8609 -4.9532 -14.8299 9.8184 -6.6989 -0.1984 3.3077 -3.1790 2.8258 0.0000 -0.0000 0.0000 -76.7542 -63.5483 54.5463 44.0999 -50.3198 -21.5438 -0.0000 -0.0000 19.3554 12.6679 35.0652 7.3580 -7.1250 0.0000 -0.0000 -25.7215 63.9168 -12.1876 0.0000 -0.0000 0.0000 75.2894 48.5446 35.6954 -60.7055 56.4950 -34.9287 0.0000 0.0000 26.8368 -12.5377 23.1088 -4.9882 7.1250 -0.0000 -0.0000 10.2837 -6.6815 9.1700
